<?xml version="1.0" encoding="UTF-8"?>
<svg version="1.1" id="Warstwa_1" xmlns:x="&amp;ns_extend;" xmlns:i="&amp;ns_ai;" xmlns:graph="&amp;ns_graphs;" xmlns="http://www.w3.org/2000/svg" xmlns:xlink="http://www.w3.org/1999/xlink" xmlns:a="http://ns.adobe.com/AdobeSVGViewerExtensions/3.0/" x="0px" y="0px" width="88px" height="88px" viewBox="0 0 88 88" enable-background="new 0 0 88 88" xml:space="preserve">
    <g>
        <path fill="#FFFFFF" d="M37.541,2.668L37.541,2.668L2.667,37.546c-3.555,3.555-3.555,9.336-0.004,12.89l34.879,34.875
		c3.553,3.56,9.338,3.56,12.893,0.002l34.872-34.877c1.721-1.721,2.673-4.007,2.673-6.443c0-2.435-0.952-4.724-2.673-6.446
		L50.434,2.668C48.707,0.948,46.419,0,43.986,0C41.548,0,39.263,0.948,37.541,2.668"></path>
        <path fill="#005BAA" d="M55.151,33.856c-2.2,1.783-3.927,2.944-2.2,4.856c0.493,0.545,2.617,1.987,6.812-1.447
		c2.296-2.019,4.496-4.006,4.496-4.006s1.509-1.812,0-3.592c-0.872-1.028-1.913-2.038-4.361-2.801
		c-1.081-0.337-3.18-0.229-2.34,0.639c0.722,0.747,1.331,1.678,1.094,2.557C58.29,31.403,57.354,32.081,55.151,33.856
        M47.496,32.094c-2.198,1.777-3.925,2.946-2.198,4.852c0.474,0.529,2.931,2.162,6.813-1.445c2.294-2.02,4.49-4.006,4.49-4.006
		s1.513-1.809,0-3.592c-0.917-1.083-2.021-2.146-4.759-2.921c-1.012-0.287-3.005-0.251-2.249,0.453
		c0.842,0.787,1.671,1.857,1.402,2.858C50.632,29.637,49.699,30.315,47.496,32.094 M32.784,33.856
		c-2.2-1.775-3.136-2.453-3.498-3.794c-0.237-0.879,0.371-1.81,1.094-2.557c0.838-0.868-1.259-0.977-2.34-0.639
		c-2.45,0.763-3.491,1.772-4.361,2.801c-1.511,1.779,0,3.592,0,3.592s2.198,1.988,4.494,4.006c4.196,3.434,6.32,1.992,6.811,1.447
		C36.711,36.8,34.985,35.639,32.784,33.856 M40.44,32.094c-2.203-1.779-3.136-2.458-3.5-3.801c-0.269-1.001,0.561-2.071,1.403-2.858
		c0.755-0.705-1.238-0.74-2.249-0.453c-2.738,0.776-3.843,1.838-4.759,2.921c-1.511,1.783,0,3.592,0,3.592s2.196,1.987,4.49,4.006
		c3.882,3.607,6.339,1.974,6.813,1.445C44.367,35.041,42.638,33.872,40.44,32.094 M48.468,28.147c0-2.293-2.027-4.147-4.524-4.147
		c-2.499,0-4.526,1.854-4.526,4.147c0,2.284,2.027,4.142,4.526,4.142C46.44,32.289,48.468,30.431,48.468,28.147"></path>
        <path fill="#008146" d="M40.662,80.732L7.245,47.314c-1.834-1.828-1.834-4.818,0-6.648L40.662,7.248
		c0.886-0.891,2.069-1.377,3.326-1.377c1.255,0,2.434,0.487,3.324,1.377l33.414,33.418c0.889,0.886,1.38,2.069,1.38,3.324
		c0,1.257-0.491,2.438-1.38,3.324L47.312,80.732C45.479,82.568,42.497,82.568,40.662,80.732 M43.988,3.461
		c-1.907,0-3.686,0.741-5.034,2.083L5.54,38.96c-2.77,2.772-2.77,7.287,0,10.056l33.419,33.421c2.772,2.77,7.283,2.77,10.055,0
		l33.419-33.421c1.344-1.341,2.084-3.124,2.084-5.026c0-1.895-0.74-3.685-2.084-5.03L49.014,5.544
		C47.672,4.202,45.886,3.461,43.988,3.461"></path>
        <path fill="#FFFFFF" d="M64.589,81.431h0.577c0.277,0,0.466-0.045,0.569-0.127l0.148-0.326l-0.072-0.235l-0.203-0.154l-0.474-0.051
		h-0.546V81.431z M64.115,83.091V80.14h1.013c0.348,0,0.6,0.023,0.752,0.082l0.372,0.286l0.138,0.428l-0.233,0.562l-0.613,0.269
		l0.252,0.161c0.116,0.114,0.269,0.309,0.436,0.582l0.362,0.581h-0.586l-0.259-0.47c-0.207-0.361-0.372-0.592-0.495-0.683
		l-0.385-0.104h-0.279v1.257H64.115z M65.316,79.284c-0.387,0-0.762,0.1-1.123,0.299c-0.366,0.19-0.647,0.474-0.855,0.842
		c-0.205,0.368-0.309,0.749-0.309,1.147c0,0.397,0.104,0.776,0.303,1.138c0.201,0.362,0.484,0.644,0.847,0.843
		c0.363,0.201,0.74,0.305,1.138,0.305c0.392,0,0.771-0.104,1.132-0.305c0.362-0.199,0.646-0.48,0.845-0.843
		c0.203-0.361,0.303-0.74,0.303-1.138c0-0.398-0.104-0.779-0.307-1.147s-0.489-0.651-0.855-0.842
		C66.072,79.384,65.693,79.284,65.316,79.284 M65.316,78.83c0.457,0,0.908,0.118,1.344,0.351c0.44,0.239,0.778,0.576,1.026,1.014
		c0.239,0.444,0.366,0.903,0.366,1.378c0,0.474-0.121,0.927-0.364,1.362c-0.241,0.434-0.577,0.772-1.014,1.014
		c-0.434,0.245-0.887,0.361-1.358,0.361c-0.478,0-0.929-0.116-1.364-0.361c-0.437-0.241-0.774-0.58-1.014-1.014
		c-0.243-0.436-0.366-0.889-0.366-1.362c0-0.475,0.123-0.934,0.368-1.378c0.248-0.438,0.591-0.774,1.028-1.014
		C64.402,78.948,64.854,78.83,65.316,78.83"></path>
        <path fill="#D2232A" d="M39.12,51.437l0.061-0.089l-0.908,4.633c-0.863-1.15-1.629-2.175-2.044-2.728
		C37.344,52.857,38.358,52.313,39.12,51.437 M32.873,48.674c-0.355,0.281-0.954,0.425-1.773,0.425h-0.392v-3.344H31.1
		c0.804,0,1.403,0.15,1.754,0.433c0.123,0.102,0.48,0.396,0.48,1.284C33.334,48.223,33.074,48.516,32.873,48.674 M60.735,42.643
		c-0.061-0.344-0.399-0.596-0.8-0.596h-6.595c-0.357,0-0.673,0.202-0.772,0.496l-1.333,3.788c0,0-0.265,0.854-0.486,1.569
		c-0.096-0.323-0.163-0.604-0.279-0.95l-0.178-0.531l-1.272-3.861c-0.097-0.302-0.417-0.51-0.776-0.51h-6.616
		c-0.392,0-0.728,0.249-0.792,0.589l-0.766,3.9c-0.286-1.224-0.939-2.22-1.976-2.974c-1.377-1.006-3.889-1.516-6.411-1.516h-6.46
		c-0.447,0-0.809,0.32-0.809,0.706V58.33c0,0.387,0.362,0.703,0.809,0.703h4.68c0.447,0,0.806-0.316,0.806-0.703v-4.823l2.939,5.154
		l0.715,0.372h10.51c0.415,0,0.759-0.27,0.8-0.624c0,0,0.412-3.591,0.613-5.206c0.474,1.375,1.71,5.328,1.71,5.328
		c0.099,0.297,0.416,0.502,0.774,0.502h3.811c0.355,0,0.671-0.205,0.776-0.502c0,0,1.231-3.947,1.703-5.328
		c0.205,1.628,0.616,5.206,0.616,5.206c0.042,0.354,0.389,0.624,0.802,0.624h6.288l0.609-0.246l0.187-0.569L60.735,42.643z"></path>
    </g>
</svg>